{
    "asset" : {
        "generator" : "Khronos glTF Blender I/O v3.4.50",
        "version" : "2.0"
    },
    "scene" : 0,
    "scenes" : [
        {
            "name" : "Scene",
            "nodes" : [
                0,
                1,
                2,
                3,
                4,
                5
            ]
        }
    ],
    "nodes" : [
        {
            "mesh" : 0,
            "name" : "Curve",
            "rotation" : [
                0.6806463003158569,
                -0.06910847127437592,
                -0.0736742615699768,
                0.7256147861480713
            ],
            "scale" : [
                337.1502990722656,
                240.04478454589844,
                345.4927673339844
            ],
            "translation" : [
                -16.924562454223633,
                10.31655216217041,
                -6.505743980407715
            ]
        },
        {
            "mesh" : 1,
            "name" : "Curve.001",
            "rotation" : [
                0.6806463003158569,
                -0.06910847127437592,
                -0.0736742615699768,
                0.7256147861480713
            ],
            "scale" : [
                337.1502990722656,
                240.04478454589844,
                345.4927673339844
            ],
            "translation" : [
                -16.8808650970459,
                10.55289077758789,
                -1.862309217453003
            ]
        },
        {
            "mesh" : 2,
            "name" : "Curve.003",
            "rotation" : [
                0.6806463003158569,
                -0.06910847127437592,
                -0.0736742615699768,
                0.7256147861480713
            ],
            "scale" : [
                337.1502990722656,
                240.04478454589844,
                345.4927673339844
            ],
            "translation" : [
                -16.85764503479004,
                10.678482055664062,
                0.6052112579345703
            ]
        },
        {
            "mesh" : 3,
            "name" : "Curve.004",
            "rotation" : [
                0.6806463003158569,
                -0.06910846382379532,
                -0.0736742690205574,
                0.7256147861480713
            ],
            "scale" : [
                308.37054443359375,
                240.04478454589844,
                311.7289123535156
            ],
            "translation" : [
                -15.391519546508789,
                12.387615203857422,
                0.4975384473800659
            ]
        },
        {
            "mesh" : 4,
            "name" : "Curve.005",
            "rotation" : [
                0.6806463003158569,
                -0.06910847127437592,
                -0.0736742615699768,
                0.7256147861480713
            ],
            "scale" : [
                337.1502990722656,
                240.04478454589844,
                345.4927673339844
            ],
            "translation" : [
                -16.325531005859375,
                9.99777603149414,
                0.6484484672546387
            ]
        },
        {
            "mesh" : 5,
            "name" : "Curve.006",
            "rotation" : [
                0.6806463003158569,
                -0.06910847127437592,
                -0.0736742615699768,
                0.7256147861480713
            ],
            "scale" : [
                337.1502990722656,
                240.04478454589844,
                345.4927673339844
            ],
            "translation" : [
                -16.02951431274414,
                9.526832580566406,
                0.6796329021453857
            ]
        }
    ],
    "materials" : [
        {
            "doubleSided" : true,
            "name" : "Material.001",
            "pbrMetallicRoughness" : {
                "baseColorFactor" : [
                    0.39675506949424744,
                    0.01680711656808853,
                    0.4178849756717682,
                    1
                ],
                "metallicFactor" : 0,
                "roughnessFactor" : 0.4000000059604645
            }
        },
        {
            "doubleSided" : true,
            "name" : "Material",
            "pbrMetallicRoughness" : {
                "baseColorFactor" : [
                    0.7969139814376831,
                    0.8000000715255737,
                    0.747089684009552,
                    1
                ],
                "metallicFactor" : 0,
                "roughnessFactor" : 0.5
            }
        }
    ],
    "meshes" : [
        {
            "name" : "Curve",
            "primitives" : [
                {
                    "attributes" : {
                        "POSITION" : 0,
                        "TEXCOORD_0" : 1,
                        "NORMAL" : 2
                    },
                    "indices" : 3,
                    "material" : 0
                }
            ]
        },
        {
            "name" : "Curve.001",
            "primitives" : [
                {
                    "attributes" : {
                        "POSITION" : 4,
                        "TEXCOORD_0" : 5,
                        "NORMAL" : 6
                    },
                    "indices" : 7,
                    "material" : 1
                }
            ]
        },
        {
            "name" : "Curve.003",
            "primitives" : [
                {
                    "attributes" : {
                        "POSITION" : 8,
                        "TEXCOORD_0" : 9,
                        "NORMAL" : 10
                    },
                    "indices" : 11,
                    "material" : 0
                }
            ]
        },
        {
            "name" : "Curve.004",
            "primitives" : [
                {
                    "attributes" : {
                        "POSITION" : 12,
                        "TEXCOORD_0" : 13,
                        "NORMAL" : 14
                    },
                    "indices" : 15,
                    "material" : 0
                }
            ]
        },
        {
            "name" : "Curve.005",
            "primitives" : [
                {
                    "attributes" : {
                        "POSITION" : 16,
                        "TEXCOORD_0" : 17,
                        "NORMAL" : 18
                    },
                    "indices" : 19,
                    "material" : 0
                }
            ]
        },
        {
            "name" : "Curve.006",
            "primitives" : [
                {
                    "attributes" : {
                        "POSITION" : 20,
                        "TEXCOORD_0" : 21,
                        "NORMAL" : 22
                    },
                    "indices" : 23,
                    "material" : 0
                }
            ]
        }
    ],
    "accessors" : [
        {
            "bufferView" : 0,
            "componentType" : 5126,
            "count" : 860,
            "max" : [
                0.1012730747461319,
                0.013000000268220901,
                0.0028918059542775154
            ],
            "min" : [
                0.002510735997930169,
                -0.013000000268220901,
                -0.09585094451904297
            ],
            "type" : "VEC3"
        },
        {
            "bufferView" : 1,
            "componentType" : 5126,
            "count" : 860,
            "type" : "VEC2"
        },
        {
            "bufferView" : 2,
            "componentType" : 5126,
            "count" : 860,
            "type" : "VEC3"
        },
        {
            "bufferView" : 3,
            "componentType" : 5123,
            "count" : 3732,
            "type" : "SCALAR"
        },
        {
            "bufferView" : 4,
            "componentType" : 5126,
            "count" : 2171,
            "max" : [
                0.0892234742641449,
                0.013000000268220901,
                -0.00812307558953762
            ],
            "min" : [
                -0.003000000026077032,
                -0.013000000268220901,
                -0.10039888322353363
            ],
            "type" : "VEC3"
        },
        {
            "bufferView" : 5,
            "componentType" : 5126,
            "count" : 2171,
            "type" : "VEC2"
        },
        {
            "bufferView" : 6,
            "componentType" : 5126,
            "count" : 2171,
            "type" : "VEC3"
        },
        {
            "bufferView" : 7,
            "componentType" : 5123,
            "count" : 9576,
            "type" : "SCALAR"
        },
        {
            "bufferView" : 8,
            "componentType" : 5126,
            "count" : 2386,
            "max" : [
                0.0697656124830246,
                0.010999999940395355,
                -0.02683224529027939
            ],
            "min" : [
                0.016456492245197296,
                -0.010999999940395355,
                -0.081694096326828
            ],
            "type" : "VEC3"
        },
        {
            "bufferView" : 9,
            "componentType" : 5126,
            "count" : 2386,
            "type" : "VEC2"
        },
        {
            "bufferView" : 10,
            "componentType" : 5126,
            "count" : 2386,
            "type" : "VEC3"
        },
        {
            "bufferView" : 11,
            "componentType" : 5123,
            "count" : 10500,
            "type" : "SCALAR"
        },
        {
            "bufferView" : 12,
            "componentType" : 5126,
            "count" : 2002,
            "max" : [
                0.05614824965596199,
                0.010999999940395355,
                -0.04076838493347168
            ],
            "min" : [
                0.030076850205659866,
                -0.010999999940395355,
                -0.06775783747434616
            ],
            "type" : "VEC3"
        },
        {
            "bufferView" : 13,
            "componentType" : 5126,
            "count" : 2002,
            "type" : "VEC2"
        },
        {
            "bufferView" : 14,
            "componentType" : 5126,
            "count" : 2002,
            "type" : "VEC3"
        },
        {
            "bufferView" : 15,
            "componentType" : 5123,
            "count" : 8628,
            "type" : "SCALAR"
        },
        {
            "bufferView" : 16,
            "componentType" : 5126,
            "count" : 2093,
            "max" : [
                0.07070185244083405,
                0.010999999940395355,
                -0.02573322132229805
            ],
            "min" : [
                0.05735063925385475,
                -0.010999999940395355,
                -0.039453908801078796
            ],
            "type" : "VEC3"
        },
        {
            "bufferView" : 17,
            "componentType" : 5126,
            "count" : 2093,
            "type" : "VEC2"
        },
        {
            "bufferView" : 18,
            "componentType" : 5126,
            "count" : 2093,
            "type" : "VEC3"
        },
        {
            "bufferView" : 19,
            "componentType" : 5123,
            "count" : 9204,
            "type" : "SCALAR"
        },
        {
            "bufferView" : 20,
            "componentType" : 5126,
            "count" : 2103,
            "max" : [
                0.07637745141983032,
                0.010999999940395355,
                -0.020970221608877182
            ],
            "min" : [
                0.06302624195814133,
                -0.010999999940395355,
                -0.03469090908765793
            ],
            "type" : "VEC3"
        },
        {
            "bufferView" : 21,
            "componentType" : 5126,
            "count" : 2103,
            "type" : "VEC2"
        },
        {
            "bufferView" : 22,
            "componentType" : 5126,
            "count" : 2103,
            "type" : "VEC3"
        },
        {
            "bufferView" : 23,
            "componentType" : 5123,
            "count" : 9204,
            "type" : "SCALAR"
        }
    ],
    "bufferViews" : [
        {
            "buffer" : 0,
            "byteLength" : 10320,
            "byteOffset" : 0,
            "target" : 34962
        },
        {
            "buffer" : 0,
            "byteLength" : 6880,
            "byteOffset" : 10320,
            "target" : 34962
        },
        {
            "buffer" : 0,
            "byteLength" : 10320,
            "byteOffset" : 17200,
            "target" : 34962
        },
        {
            "buffer" : 0,
            "byteLength" : 7464,
            "byteOffset" : 27520,
            "target" : 34963
        },
        {
            "buffer" : 0,
            "byteLength" : 26052,
            "byteOffset" : 34984,
            "target" : 34962
        },
        {
            "buffer" : 0,
            "byteLength" : 17368,
            "byteOffset" : 61036,
            "target" : 34962
        },
        {
            "buffer" : 0,
            "byteLength" : 26052,
            "byteOffset" : 78404,
            "target" : 34962
        },
        {
            "buffer" : 0,
            "byteLength" : 19152,
            "byteOffset" : 104456,
            "target" : 34963
        },
        {
            "buffer" : 0,
            "byteLength" : 28632,
            "byteOffset" : 123608,
            "target" : 34962
        },
        {
            "buffer" : 0,
            "byteLength" : 19088,
            "byteOffset" : 152240,
            "target" : 34962
        },
        {
            "buffer" : 0,
            "byteLength" : 28632,
            "byteOffset" : 171328,
            "target" : 34962
        },
        {
            "buffer" : 0,
            "byteLength" : 21000,
            "byteOffset" : 199960,
            "target" : 34963
        },
        {
            "buffer" : 0,
            "byteLength" : 24024,
            "byteOffset" : 220960,
            "target" : 34962
        },
        {
            "buffer" : 0,
            "byteLength" : 16016,
            "byteOffset" : 244984,
            "target" : 34962
        },
        {
            "buffer" : 0,
            "byteLength" : 24024,
            "byteOffset" : 261000,
            "target" : 34962
        },
        {
            "buffer" : 0,
            "byteLength" : 17256,
            "byteOffset" : 285024,
            "target" : 34963
        },
        {
            "buffer" : 0,
            "byteLength" : 25116,
            "byteOffset" : 302280,
            "target" : 34962
        },
        {
            "buffer" : 0,
            "byteLength" : 16744,
            "byteOffset" : 327396,
            "target" : 34962
        },
        {
            "buffer" : 0,
            "byteLength" : 25116,
            "byteOffset" : 344140,
            "target" : 34962
        },
        {
            "buffer" : 0,
            "byteLength" : 18408,
            "byteOffset" : 369256,
            "target" : 34963
        },
        {
            "buffer" : 0,
            "byteLength" : 25236,
            "byteOffset" : 387664,
            "target" : 34962
        },
        {
            "buffer" : 0,
            "byteLength" : 16824,
            "byteOffset" : 412900,
            "target" : 34962
        },
        {
            "buffer" : 0,
            "byteLength" : 25236,
            "byteOffset" : 429724,
            "target" : 34962
        },
        {
            "buffer" : 0,
            "byteLength" : 18408,
            "byteOffset" : 454960,
            "target" : 34963
        }
    ],
    "buffers" : [
        {
            "byteLength" : 473368,
            "uri" : "data:application/octet-stream;base64,"
        }
    ]
}
