<svg xmlns="http://www.w3.org/2000/svg" data-name="Layer 1" viewBox="0 0 64 64"><path fill="#425b72" d="M40 12.5a.5.5 0 0 1-.5-.5V6a.5.5 0 0 1 .5-.5h10a.5.5 0 0 1 0 1h-9.5V12a.5.5 0 0 1-.5.5zm8 6a.5.5 0 0 1-.5-.5v-6a.5.5 0 0 1 .5-.5h8a.5.5 0 0 1 0 1h-7.5V18a.5.5 0 0 1-.5.5zm-24-6a.5.5 0 0 1-.5-.5V6.5H14a.5.5 0 0 1 0-1h10a.5.5 0 0 1 .5.5v6a.5.5 0 0 1-.5.5zm-8 6a.5.5 0 0 1-.5-.5v-5.5H8a.5.5 0 0 1 0-1h8a.5.5 0 0 1 .5.5v6a.5.5 0 0 1-.5.5zm40 34h-8a.5.5 0 0 1-.5-.5v-6a.5.5 0 0 1 1 0v5.5H56a.5.5 0 0 1 0 1zm-32 6H14a.5.5 0 0 1 0-1h9.5V52a.5.5 0 0 1 1 0v6a.5.5 0 0 1-.5.5zm-8-6H8a.5.5 0 0 1 0-1h7.5V46a.5.5 0 0 1 1 0v6a.5.5 0 0 1-.5.5zm34 6H40a.5.5 0 0 1-.5-.5v-6a.5.5 0 0 1 1 0v5.5H50a.5.5 0 0 1 0 1z"/><path fill="#f26da6" d="M28.62 25a3.967 3.967 0 0 0-1.3-6.761A4 4 0 1 0 20 16a4.053 4.053 0 0 0 .059.587 3.979 3.979 0 0 0-5.472 5.472A4.053 4.053 0 0 0 14 22a4 4 0 0 0-3.315 6.239 3.977 3.977 0 0 0 0 7.522A4 4 0 0 0 14 42a4.053 4.053 0 0 0 .587-.059 3.979 3.979 0 0 0 5.472 5.472A4.053 4.053 0 0 0 20 48a4 4 0 1 0 7.315-2.239A3.967 3.967 0 0 0 28.62 39a3.925 3.925 0 0 0 .825-5 3.881 3.881 0 0 0 0-4 3.925 3.925 0 0 0-.825-5zM34 28a3.955 3.955 0 0 0 .555 2 3.881 3.881 0 0 0 0 4 3.925 3.925 0 0 0 .825 5 3.967 3.967 0 0 0 1.3 6.761A4 4 0 1 0 44 48a4.053 4.053 0 0 0-.059-.587 3.979 3.979 0 0 0 5.472-5.472A4.053 4.053 0 0 0 50 42a4 4 0 0 0 3.315-6.239 3.977 3.977 0 0 0 0-7.522A4 4 0 0 0 50 22a4.053 4.053 0 0 0-.587.059 3.979 3.979 0 0 0-5.472-5.472A4.053 4.053 0 0 0 44 16a4 4 0 1 0-7.315 2.239A3.967 3.967 0 0 0 35.38 25 3.972 3.972 0 0 0 34 28z"/><path fill="#d83d88" d="M22 20.5a.5.5 0 0 1-.5-.5 3.5 3.5 0 0 0-3.5-3.5.5.5 0 0 1 0-1 4.505 4.505 0 0 1 4.5 4.5.5.5 0 0 1-.5.5zm-4 6a.5.5 0 0 1-.5-.5 3.5 3.5 0 0 0-3.5-3.5.5.5 0 0 1 0-1 4.505 4.505 0 0 1 4.5 4.5.5.5 0 0 1-.5.5zm0 22a.5.5 0 0 1 0-1 3.5 3.5 0 0 0 3.5-3.5.5.5 0 0 1 1 0 4.505 4.505 0 0 1-4.5 4.5zm-4-6a.5.5 0 0 1 0-1 3.5 3.5 0 0 0 3.5-3.5.5.5 0 0 1 1 0 4.505 4.505 0 0 1-4.5 4.5zm2-10a.5.5 0 0 1-.5-.5 3.5 3.5 0 0 0-7 0 .5.5 0 0 1-1 0 4.5 4.5 0 0 1 9 0 .5.5 0 0 1-.5.5zm26-12a.5.5 0 0 1-.5-.5 4.505 4.505 0 0 1 4.5-4.5.5.5 0 0 1 0 1 3.5 3.5 0 0 0-3.5 3.5.5.5 0 0 1-.5.5zm4 6a.5.5 0 0 1-.5-.5 4.505 4.505 0 0 1 4.5-4.5.5.5 0 0 1 0 1 3.5 3.5 0 0 0-3.5 3.5.5.5 0 0 1-.5.5zm0 22a4.505 4.505 0 0 1-4.5-4.5.5.5 0 0 1 1 0 3.5 3.5 0 0 0 3.5 3.5.5.5 0 0 1 0 1zm4-6a4.505 4.505 0 0 1-4.5-4.5.5.5 0 0 1 1 0 3.5 3.5 0 0 0 3.5 3.5.5.5 0 0 1 0 1zm6-10a.5.5 0 0 1-.5-.5 3.5 3.5 0 0 0-7 0 .5.5 0 0 1-1 0 4.5 4.5 0 0 1 9 0 .5.5 0 0 1-.5.5z"/><path fill="#425b72" d="M44 32.5h-4a.5.5 0 0 1 0-1h4a.5.5 0 0 1 0 1zm0-4h-4a.5.5 0 0 1 0-1h4a.5.5 0 0 1 0 1zm0 8h-4a.5.5 0 0 1 0-1h4a.5.5 0 0 1 0 1zm-20-4h-4a.5.5 0 0 1 0-1h4a.5.5 0 0 1 0 1zm0-4h-4a.5.5 0 0 1 0-1h4a.5.5 0 0 1 0 1zm0 8h-4a.5.5 0 0 1 0-1h4a.5.5 0 0 1 0 1z"/><path fill="#edebf1" d="M24 24h16v16H24z"/><path fill="#425b72" d="M28 28h8v8h-8z"/><circle cx="52" cy="6" r="2" fill="#fbdb75"/><circle cx="58" cy="12" r="2" fill="#fbdb75"/><circle cx="12" cy="6" r="2" fill="#fbdb75"/><circle cx="6" cy="12" r="2" fill="#fbdb75"/><circle cx="52" cy="58" r="2" fill="#fbdb75"/><circle cx="58" cy="52" r="2" fill="#fbdb75"/><circle cx="12" cy="58" r="2" fill="#fbdb75"/><circle cx="6" cy="52" r="2" fill="#fbdb75"/></svg>