<svg xmlns="http://www.w3.org/2000/svg" viewBox="0 0 80 80"><path fill="#CED5E0" d="M68.157 44.43c0 17.705-14.346 32-32 32-17.67 0-32-14.327-32-32 0-17.852 14.47-32 32-32 17.697 0 32 14.378 32 32z"/><path fill="#FF7058" d="M54.272 70.825c-10.973 7.542-25.391 7.407-36.16.04l36.16-.04z"/><path fill="#E54433" d="M36.162 70.865a3.88 3.88 0 0 0-3.87 3.87c0 .53.1 1.04.29 1.5a31.775 31.775 0 0 1-14.47-5.37h18.05z"/><path fill="#E6E9EE" d="M28.369 60.423h15.577v6.052H28.369z"/><path fill="#FFF" d="M32.754 63.449a3.026 3.026 0 0 0 3.027 3.026h8.165v-6.052h-8.165a3.026 3.026 0 0 0-3.027 3.026z"/><path fill="#324A5E" d="M51.24 70.381a.448.448 0 0 1-.45.444H21.525a.448.448 0 0 1-.451-.444 4.43 4.43 0 0 1 4.426-4.426h21.313a4.43 4.43 0 0 1 4.426 4.426z"/><path fill="#3F596B" d="M46.814 65.955h-15.32a2.435 2.435 0 0 0 0 4.87H50.79c.24 0 .45-.19.451-.43a4.429 4.429 0 0 0-4.426-4.44zM70.337 18.46v39.81a2.97 2.97 0 0 1-2.97 2.97H8.927a31.824 31.824 0 0 1-4.77-16.81V18.46c0-.93.43-1.76 1.09-2.3.14-.12.3-.23.47-.32.17-.08.35-.16.54-.22.18-.06.38-.1.57-.12.1-.01.21-.01.31-.01h60.23c1.65 0 2.97 1.33 2.97 2.97z"/><path fill="#324A5E" d="M11.229 18.457v39.81a2.97 2.97 0 0 0 2.97 2.97h-5.27a31.765 31.765 0 0 1-3.26-7.07c-.98-3.07-1.51-6.34-1.51-9.74v-25.97c0-.93.43-1.76 1.09-2.3.14-.12.3-.23.47-.32.17-.09.35-.17.54-.22.18-.06.38-.1.57-.12.1-.01.21-.01.31-.01h10.9c-.59 0-1.08.48-1.08 1.08 0 .59.49 1.08 1.08 1.08h-6.7c-.07.27-.11.53-.11.81z"/><circle cx="36.159" cy="57.042" r="2.261" fill="#EFF1F4"/><path fill="#CED5E0" d="M36.803 59.2c-.205.076-.42.108-.646.108a2.268 2.268 0 0 1-2.262-2.262 2.261 2.261 0 0 1 2.262-2.26c.226 0 .43.031.635.096a2.286 2.286 0 0 0-1.583 2.164c0 1.002.668 1.874 1.594 2.154z"/><path fill="#FCD98B" d="M67.337 18.489v34.76H7.157z"/><path fill="#FFD05B" d="M7.157 53.249v-34.76h60.18z"/><path fill="#FFF" d="M18.451 29.657V49.88a.962.962 0 0 1-.972.971h-2.39a.968.968 0 0 1-.972-.971V29.657c0-.534.437-.972.972-.972h2.39c.544 0 .972.438.972.972zm7.154 8.435V49.88a.962.962 0 0 1-.972.971h-2.39a.968.968 0 0 1-.973-.971V38.092c0-.535.438-.972.972-.972h2.39c.545 0 .973.437.973.972zm7.153 3.03v8.758a.962.962 0 0 1-.972.971h-2.39a.968.968 0 0 1-.972-.971v-8.757c0-.535.437-.972.972-.972h2.39c.545 0 .972.437.972.972zm7.154-5.263v14.02a.962.962 0 0 1-.972.972h-2.39a.968.968 0 0 1-.972-.972V35.86c0-.534.437-.971.971-.971h2.391c.544 0 .972.437.972.971z"/><path fill="#54C0EB" d="M18.451 33.99v15.89a.962.962 0 0 1-.972.971h-2.39a.968.968 0 0 1-.972-.971V33.99c0-.534.437-.972.972-.972h2.39c.544 0 .972.438.972.972zm7.152 10.435v5.455a.962.962 0 0 1-.971.971H22.24a.968.968 0 0 1-.972-.971v-5.455c0-.534.437-.972.972-.972h2.39c.545 0 .972.438.972.972zm7.153-.124v5.578a.962.962 0 0 1-.972.972h-2.39a.968.968 0 0 1-.972-.971V44.3c0-.534.437-.971.971-.971h2.391c.544 0 .972.437.972.971zm7.152-4.105v9.684a.962.962 0 0 1-.972.971h-2.39a.968.968 0 0 1-.972-.971v-9.684c0-.534.437-.972.972-.972h2.39c.545 0 .972.438.972.972z"/><path fill="#3AABCE" d="M17.19 50.847h-2.1c-.54 0-.97-.42-.97-.97v-15.89c0-.53.43-.97.97-.97h2.1c-.53 0-.97.44-.97.97v15.89c0 .55.44.97.97.97zm7.15 0h-2.1c-.53 0-.97-.42-.97-.97v-5.45c0-.54.44-.97.97-.97h2.1c-.53 0-.97.43-.97.97v5.45c0 .55.44.97.97.97zm7.16 0h-2.11c-.53 0-.97-.42-.97-.97v-5.58c0-.53.44-.97.97-.97h2.11a.98.98 0 0 0-.98.97v5.58c0 .55.44.97.98.97zm7.15 0h-2.1c-.54 0-.98-.42-.98-.97v-9.68c0-.54.44-.97.98-.97h2.1c-.54 0-.97.43-.97.97v9.68c0 .55.43.97.97.97z"/><path fill="#75D38F" d="M39.545 5.468v19.194c0 1.05.852 1.902 1.903 1.902h.004a2.584 2.584 0 0 1 2.585 2.585v4.96c0 .945 1.179 1.376 1.788.654l6.14-7.28a2.585 2.585 0 0 1 1.976-.919H73.94c1.05 0 1.903-.852 1.903-1.903V5.468c0-1.051-.852-1.903-1.903-1.903H41.448c-1.05 0-1.903.852-1.903 1.903z"/><path fill="#65C97A" d="m51.49 28.058-5.67 6.712c-.598.714-1.774.29-1.774-.656v-4.956a2.585 2.585 0 0 0-2.584-2.585h-.02c-1.041 0-1.89-.868-1.89-1.91V5.474c0-1.06.849-1.909 1.89-1.909h7.715c-1.06 0-1.91.848-1.91 1.91v19.19c0 1.041.85 1.91 1.91 1.91 1.022 0 1.929.597 2.334 1.484z"/><path fill="#FFF" d="M47.034 12.443c.443-.261.992-.393 1.63-.393.414 0 .782.045 1.096.135.316.09.647.224.988.403.278.139.646.08.857-.14a.692.692 0 0 0 .202-.492.736.736 0 0 0-.392-.673 6.514 6.514 0 0 0-1.33-.574 5.392 5.392 0 0 0-1.528-.202c-.839 0-1.605.186-2.274.552a4.012 4.012 0 0 0-1.599 1.598c-.384.687-.578 1.498-.578 2.408s.194 1.72.578 2.408c.385.69.923 1.228 1.599 1.598.67.366 1.435.551 2.274.551.564 0 1.077-.068 1.528-.202a6.465 6.465 0 0 0 1.327-.572.737.737 0 0 0 .395-.675.693.693 0 0 0-.206-.5.758.758 0 0 0-.857-.13 5.206 5.206 0 0 1-.984.402 4.02 4.02 0 0 1-1.096.134c-.638 0-1.187-.131-1.63-.392a2.467 2.467 0 0 1-.996-1.06c-.225-.454-.34-.98-.34-1.562s.115-1.109.34-1.563c.225-.452.55-.799.996-1.06zm12.595 2.323c.296-.437.446-.926.446-1.453 0-.802-.306-1.46-.908-1.958-.589-.484-1.464-.729-2.606-.729h-2.797c-.22 0-.41.08-.563.238a.788.788 0 0 0-.226.565v7.344a.76.76 0 0 0 .229.56.81.81 0 0 0 1.124.003.767.767 0 0 0 .239-.563v-2.534H56.8c.48 0 .838.11 1.06.33.24.235.386.492.447.784.069.324.103.68.103 1.06v.36c0 .228.075.419.223.567a.785.785 0 0 0 .578.223c.218 0 .412-.08.56-.23.151-.15.23-.343.23-.56v-.553c0-.573-.112-1.162-.334-1.749-.165-.441-.432-.774-.797-.996.31-.184.564-.421.758-.71zm-1.146-1.37c0 .41-.162.72-.496.945-.36.242-.864.365-1.498.365h-1.922v-2.548h1.861c.781 0 1.331.113 1.635.335.282.208.42.503.42.904zm12.502-2.52h-.001a.991.991 0 0 0-.732-.31h-.396a.975.975 0 0 0-.585.193 1.146 1.146 0 0 0-.379.469l-2.491 6.213-2.496-6.223a1.158 1.158 0 0 0-.376-.46.975.975 0 0 0-.585-.191h-.396a.989.989 0 0 0-.73.308c-.2.204-.3.451-.3.733v7.165c0 .216.079.41.228.56.3.3.815.304 1.125.004a.76.76 0 0 0 .239-.564V13.24l2.292 5.665c.083.199.217.36.4.479.363.238.84.236 1.196 0a1.05 1.05 0 0 0 .402-.481l2.29-5.662v5.532c0 .219.083.413.238.563.156.15.346.227.565.227.22 0 .408-.077.56-.229.15-.15.23-.343.23-.561v-7.164c0-.283-.101-.529-.298-.733z"/></svg>