<svg xmlns="http://www.w3.org/2000/svg" width="32" height="32" enable-background="new 0 0 32 32" viewBox="0 0 32 32"><path fill="#CFD8DC" d="M1.5,4.5v20c0,1.657,4.253,3,9.5,3s9.5-1.343,9.5-3v-20H1.5z"/><circle cx="13.5" cy="17.5" r="3" fill="#FFF"/><circle cx="27.5" cy="27.5" r="3" fill="#FFF"/><circle cx="27.5" cy="7.5" r="3" fill="#FFF"/><circle cx="27.5" cy="27.5" r="1.5" fill="#80D8FF"/><circle cx="27.5" cy="7.5" r="1.5" fill="#FFF176"/><circle cx="13.5" cy="17.5" r="1.5" fill="#FF8A80"/><ellipse cx="11" cy="4.5" fill="#F2F4F5" rx="9.5" ry="3"/><path fill="#455A64" d="M25.063 26.259c-.101 0-.202-.03-.291-.093l-9.124-6.517c-.225-.16-.276-.473-.116-.697.161-.226.473-.276.698-.116l9.124 6.517c.225.16.276.473.116.697C25.372 26.186 25.218 26.259 25.063 26.259zM15.94 16.257c-.155 0-.31-.073-.407-.209-.16-.225-.108-.537.116-.697l9.121-6.515c.227-.16.537-.109.698.116.16.225.108.537-.116.697l-9.121 6.515C16.143 16.227 16.041 16.257 15.94 16.257z"/><path fill="#455A64" d="M13.5 21c-1.93 0-3.5-1.57-3.5-3.5s1.57-3.5 3.5-3.5 3.5 1.57 3.5 3.5S15.43 21 13.5 21zM13.5 15c-1.379 0-2.5 1.122-2.5 2.5s1.121 2.5 2.5 2.5 2.5-1.122 2.5-2.5S14.879 15 13.5 15zM27.5 31c-1.93 0-3.5-1.57-3.5-3.5s1.57-3.5 3.5-3.5 3.5 1.57 3.5 3.5S29.43 31 27.5 31zM27.5 25c-1.379 0-2.5 1.122-2.5 2.5s1.121 2.5 2.5 2.5 2.5-1.122 2.5-2.5S28.879 25 27.5 25zM27.5 11C25.57 11 24 9.43 24 7.5S25.57 4 27.5 4 31 5.57 31 7.5 29.43 11 27.5 11zM27.5 5C26.121 5 25 6.122 25 7.5s1.121 2.5 2.5 2.5S30 8.878 30 7.5 28.879 5 27.5 5zM1.5 25C1.224 25 1 24.776 1 24.5v-2C1 22.224 1.224 22 1.5 22S2 22.224 2 22.5v2C2 24.776 1.776 25 1.5 25zM20.5 10C20.224 10 20 9.776 20 9.5v-5C20 4.224 20.224 4 20.5 4S21 4.224 21 4.5v5C21 9.776 20.776 10 20.5 10zM1.5 10C1.224 10 1 9.776 1 9.5v-5C1 4.224 1.224 4 1.5 4S2 4.224 2 4.5v5C2 9.776 1.776 10 1.5 10zM1.5 15C1.224 15 1 14.776 1 14.5v-2C1 12.224 1.224 12 1.5 12S2 12.224 2 12.5v2C2 14.776 1.776 15 1.5 15zM1.5 20C1.224 20 1 19.776 1 19.5v-2C1 17.224 1.224 17 1.5 17S2 17.224 2 17.5v2C2 19.776 1.776 20 1.5 20z"/><path fill="#455A64" d="M11 23c-4.848 0-10-1.227-10-3.5C1 19.224 1.224 19 1.5 19S2 19.224 2 19.5c0 1.044 3.424 2.5 9 2.5.833 0 1.659-.035 2.457-.103.271-.027.517.18.541.455.023.275-.181.518-.455.541C12.717 22.964 11.861 23 11 23zM8.499 17.895c-.015 0-.029 0-.044-.002C5.016 17.598 1 16.532 1 14.5 1 14.224 1.224 14 1.5 14S2 14.224 2 14.5c0 .762 2.029 2.009 6.541 2.397.275.023.479.266.455.541C8.974 17.698 8.755 17.895 8.499 17.895zM11 28c-4.848 0-10-1.227-10-3.5C1 24.224 1.224 24 1.5 24S2 24.224 2 24.5c0 1.044 3.424 2.5 9 2.5s9-1.456 9-2.5c0-.276.224-.5.5-.5s.5.224.5.5C21 26.773 15.848 28 11 28zM11 13C6.152 13 1 11.773 1 9.5 1 9.224 1.224 9 1.5 9S2 9.224 2 9.5c0 1.044 3.424 2.5 9 2.5s9-1.456 9-2.5C20 9.224 20.224 9 20.5 9S21 9.224 21 9.5C21 11.773 15.848 13 11 13zM11 8C7.899 8 5.047 7.543 3.175 6.748 2.92 6.64 2.802 6.346 2.91 6.092s.403-.373.655-.264C5.293 6.562 8.072 7 11 7c5.576 0 9-1.456 9-2.5S16.576 2 11 2 2 3.456 2 4.5C2 4.776 1.776 5 1.5 5S1 4.776 1 4.5C1 2.227 6.152 1 11 1s10 1.227 10 3.5S15.848 8 11 8zM20.5 20c-.13 0-.25-.05-.351-.14C20.05 19.75 20 19.63 20 19.5c0-.13.05-.26.14-.35.21-.2.521-.19.71-.01C20.95 19.24 21 19.37 21 19.5c0 .13-.05.26-.141.35C20.76 19.95 20.63 20 20.5 20zM20.5 18c-.13 0-.25-.05-.351-.14C20.05 17.76 20 17.63 20 17.5c0-.13.05-.25.14-.35.21-.2.521-.19.71-.01C20.95 17.24 21 17.37 21 17.5c0 .13-.05.26-.141.35C20.76 17.95 20.63 18 20.5 18zM20.5 16c-.13 0-.26-.05-.351-.15C20.05 15.76 20 15.63 20 15.5c0-.13.05-.25.14-.35.2-.2.53-.19.71 0C20.95 15.24 21 15.37 21 15.5c0 .13-.05.26-.15.35C20.76 15.95 20.63 16 20.5 16z"/></svg>