<svg xmlns="http://www.w3.org/2000/svg" enable-background="new 0 0 512 512" viewBox="0 0 512 512"><rect width="309" height="432" x="198" y="5" fill="#9ad2fc"/><rect width="274" height="397" x="198" y="40" fill="#68a1d6"/><rect width="309" height="432" x="136" y="40" fill="#c075ac"/><polygon fill="#b23998" points="136 472 337 472 409 407 409 75 136 75"/><polygon fill="#68a1d6" points="384 75 75 75 75 507 261 507 384 384"/><path fill="#9ad2fc" d="M227.2,384H75V75h245v216.2C320,342.5,278.5,384,227.2,384z"/><path fill="#f3e630" d="M75,190.7H33.8C15.2,190.7,0,175.5,0,156.8S15.2,123,33.8,123h149.8
				c10.7,0,19.4,8.7,19.4,19.4c0,10.7-8.7,19.4-19.4,19.4h-82.1v-10h82.1c5.2,0,9.4-4.2,9.4-9.4s-4.2-9.4-9.4-9.4H33.8
				C20.7,133,10,143.7,10,156.8s10.7,23.8,23.8,23.8H75V190.7z"/><rect width="99" height="10" x="238" y="152" fill="#a38c31"/><rect width="215" height="10" x="122" y="216" fill="#a38c31"/><rect width="215" height="10" x="122" y="260" fill="#a38c31"/><rect width="215" height="10" x="122" y="304" fill="#a38c31"/><rect width="215" height="10" x="122" y="348" fill="#a38c31"/><polygon fill="#3179af" points="261 384 384 384 261 507"/><path fill="#060d1a" d="M75,190.7H33.8C15.2,190.7,0,175.5,0,156.8S15.2,123,33.8,123h149.8
				c10.7,0,19.4,8.7,19.4,19.4c0,10.7-8.7,19.4-19.4,19.4h-82.1v-10h82.1c5.2,0,9.4-4.2,9.4-9.4s-4.2-9.4-9.4-9.4H33.8
				C20.7,133,10,143.7,10,156.8s10.7,23.8,23.8,23.8H75V190.7z"/><rect width="99" height="10" x="238" y="152" fill="#060d1a"/><rect width="215" height="10" x="122" y="216" fill="#060d1a"/><rect width="215" height="10" x="122" y="260" fill="#060d1a"/><rect width="215" height="10" x="122" y="304" fill="#060d1a"/><rect width="215" height="10" x="122" y="348" fill="#060d1a"/><path fill="#060d1a" d="M261,512c-0.6,0-1.3-0.1-1.9-0.4c-1.9-0.8-3.1-2.6-3.1-4.6V384c0-2.8,2.2-5,5-5h123
				c2,0,3.8,1.2,4.6,3.1c0.8,1.9,0.3,4-1.1,5.4l-123,123C263.6,511.5,262.3,512,261,512z M266,389v105.9L371.9,389H266z"/><path fill="#060d1a" d="M445,477H296v-10h144V45H141v10h-10V40c0-2.8,2.2-5,5-5h309c2.8,0,5,2.2,5,5v432
				C450,474.8,447.8,477,445,477z"/><path fill="#060d1a" d="M507,442h-42v-10h37V10H203v30h-10V5c0-2.8,2.2-5,5-5h309c2.8,0,5,2.2,5,5v432
				C512,439.8,509.8,442,507,442z"/><path fill="#060d1a" d="M261,512H75c-2.8,0-5-2.2-5-5V148h10v354h178.9L379,381.9V80H80v48H70V75c0-2.8,2.2-5,5-5
				h309c2.8,0,5,2.2,5,5v309c0,1.3-0.5,2.6-1.5,3.5l-123,123C263.6,511.5,262.3,512,261,512z"/></svg>