<svg xmlns="http://www.w3.org/2000/svg" enable-background="new 0 0 64 64" viewBox="0 0 64 64"><path fill="#fff" d="M14.8,7.1v37.8c5.2-6.5,14-10.8,33-10.8V18C28.7,18,19.9,13.7,14.8,7.1z"/><path fill="#c7d9f9" d="M47.8,25.7v8.4c-19,0-27.8,4.3-33,10.8V25.7H47.8z"/><path fill="#e3ecff" d="M14.8,14.4v23.1c5.2-4,14-6.6,33-6.6V21C28.7,21.1,19.9,18.4,14.8,14.4z"/><path fill="#ff5892" d="M13 32h1.8V20.1H13c-1.5 0-2.8 1.3-2.8 2.8v6.3C10.2 30.7 11.4 32 13 32zM47.8 34.1H58c2.8 0 5-2.2 5-5V23c0-2.8-2.2-5-5-5H47.8V34.1z"/><path fill="#fecb4d" d="M48.8,38.6h7.1L52.8,54c-0.4,1.9-2.2,3.1-4.1,2.7l0,0c-1.9-0.4-3.1-2.2-2.7-4.1L48.8,38.6z"/><path fill="#e3ecff" d="M48.1,38.6h8.4c1.1,0,2-0.9,2-2v-2.5H46.1v2.5C46.1,37.7,47,38.6,48.1,38.6z"/><path fill="none" stroke="#2a3c65" stroke-linecap="round" stroke-linejoin="round" stroke-miterlimit="10" stroke-width="1.5" d="M12 31.7c-1.1-.4-1.8-1.5-1.8-2.7v-6c0-1.2.7-2.2 1.8-2.7M43.8 17.9c-16.3-.6-24.2-4.7-29-10.8v37.8c4.8-6 12.7-10.2 29-10.8"/><line x1="6.8" x2="2" y1="21.5" y2="18.9" fill="none" stroke="#2a3c65" stroke-linecap="round" stroke-linejoin="round" stroke-miterlimit="10" stroke-width="1.5"/><line x1="5.8" x2="1" y1="26" y2="26" fill="none" stroke="#2a3c65" stroke-linecap="round" stroke-linejoin="round" stroke-miterlimit="10" stroke-width="1.5"/><line x1="6.8" x2="2" y1="30.6" y2="33.1" fill="none" stroke="#2a3c65" stroke-linecap="round" stroke-linejoin="round" stroke-miterlimit="10" stroke-width="1.5"/><path fill="none" stroke="#2a3c65" stroke-linecap="round" stroke-linejoin="round" stroke-miterlimit="10" stroke-width="1.5" d="M55.4 41.1l-2.6 13c-.4 1.9-2.2 3.1-4.1 2.7l0 0c-1.9-.4-3.1-2.2-2.7-4.1l2.3-11.6M58.5 36.5c0 1.1-.9 2.1-2.1 2.1h-8.2c-1.1 0-2.1-.9-2.1-2.1M41 36.6c.5 2.9 1.9 4.6 4.3 5M47.8 34.1H58c2.8 0 5-2.2 5-5V23c0-2.8-2.2-5-5-5H47.8V34.1z"/><line x1="58.1" x2="52.7" y1="22.3" y2="22.3" fill="none" stroke="#2a3c65" stroke-linecap="round" stroke-linejoin="round" stroke-miterlimit="10" stroke-width="1.5"/><line x1="58.1" x2="52.7" y1="26" y2="26" fill="none" stroke="#2a3c65" stroke-linecap="round" stroke-linejoin="round" stroke-miterlimit="10" stroke-width="1.5"/><line x1="58.1" x2="52.7" y1="29.7" y2="29.7" fill="none" stroke="#2a3c65" stroke-linecap="round" stroke-linejoin="round" stroke-miterlimit="10" stroke-width="1.5"/></svg>